<?xml version="1.0" encoding="UTF-8" standalone="no"?>
<!DOCTYPE svg PUBLIC "-//W3C//DTD SVG 1.1//EN" "http://www.w3.org/Graphics/SVG/1.1/DTD/svg11.dtd">
<svg width="100%" height="100%" viewBox="0 0 71 74" version="1.1" xmlns="http://www.w3.org/2000/svg" xmlns:xlink="http://www.w3.org/1999/xlink" xml:space="preserve" xmlns:serif="http://www.serif.com/" style="fill-rule:evenodd;clip-rule:evenodd;stroke-linejoin:round;stroke-miterlimit:2;">
    <g transform="matrix(1,0,0,1,-2451.31,-972.012)">
        <g transform="matrix(1,0,0,0.9,0,0)">
            <g transform="matrix(1,0,0,1.11111,0,0)">
                <path d="M2460.67,1036.02L2471.31,1033.17L2472.51,1033.88C2476.91,1036.51 2481.92,1037.89 2487,1037.89C2502.07,1037.89 2514.44,1026.08 2515.33,1011.23C2515.48,1007.63 2520.86,1004.46 2521.72,1005.8C2521.88,1006.98 2521.97,1008.23 2521.99,1009.52C2521.99,1028.81 2506.29,1044.51 2487,1044.51C2481.2,1044.51 2475.49,1043.04 2470.36,1040.27L2451.31,1045.37L2456.39,1026.42C2453.51,1021.23 2452,1015.42 2452,1009.52C2452,990.23 2467.69,974.534 2486.97,974.523C2488.62,974.572 2490.08,974.724 2491.33,975C2490.8,978.025 2489.21,979.927 2486.97,981.136C2471.34,981.147 2458.62,993.875 2458.62,1009.52C2458.62,1014.68 2460.05,1019.77 2462.77,1024.23L2463.51,1025.44L2460.67,1036.02Z" style="fill:rgb(12,178,107);"/>
            </g>
        </g>
        <g transform="matrix(1,0,0,0.9,0,0)">
            <g transform="matrix(4.16667,0,0,4.62963,2041.74,683.339)">
                <path d="M109.985,95.851C109.639,95.644 109.19,95.413 108.782,95.579C108.47,95.707 108.27,96.196 108.068,96.446C107.964,96.574 107.84,96.594 107.681,96.53C106.508,96.063 105.609,95.279 104.962,94.201C104.852,94.033 104.872,93.902 105.004,93.746C105.2,93.516 105.445,93.254 105.498,92.945C105.551,92.634 105.405,92.272 105.277,91.995C105.113,91.642 104.93,91.139 104.577,90.939C104.252,90.755 103.823,90.859 103.534,91.094C103.034,91.501 102.793,92.139 102.8,92.771C102.802,92.95 102.824,93.13 102.866,93.303C102.967,93.72 103.16,94.11 103.377,94.48C103.54,94.759 103.718,95.029 103.91,95.29C104.537,96.142 105.317,96.882 106.221,97.436C106.672,97.712 107.159,97.955 107.662,98.121C108.227,98.308 108.73,98.502 109.34,98.386C109.979,98.265 110.608,97.87 110.861,97.255C110.937,97.072 110.974,96.869 110.932,96.677C110.845,96.279 110.307,96.043 109.985,95.851Z" style="fill:rgb(12,178,107);"/>
            </g>
        </g>
        <g transform="matrix(1,0,0,0.9,0,0)">
            <g transform="matrix(1.24658,0,0,1.38509,-621.434,-278.374)">
                <path d="M2516.17,993.298C2509.23,993.298 2503.59,987.664 2503.59,980.723C2503.59,987.664 2497.96,993.298 2491.02,993.298C2497.96,993.298 2503.59,998.933 2503.59,1005.87C2503.59,998.933 2509.23,993.298 2516.17,993.298Z" style="fill:rgb(12,178,107);"/>
            </g>
        </g>
        <g transform="matrix(1,0,0,0.9,0,0)">
            <g transform="matrix(0.527495,0,0,0.586106,1191.23,528.755)">
                <path d="M2516.17,993.298C2509.23,993.298 2503.59,987.664 2503.59,980.723C2503.59,987.664 2497.96,993.298 2491.02,993.298C2497.96,993.298 2503.59,998.933 2503.59,1005.87C2503.59,998.933 2509.23,993.298 2516.17,993.298Z" style="fill:rgb(12,178,107);"/>
            </g>
        </g>
    </g>
</svg>
